<?xml version="1.0" encoding="UTF-8"?>
<svg id="Layer_1" data-name="Layer 1" xmlns="http://www.w3.org/2000/svg" viewBox="0 0 1889.95 739.34">
  <defs>
    <style>
      .cls-1 {
        fill: #333;
      }
    </style>
  </defs>
  <g id="Layer_1_copy" data-name="Layer 1 copy">
    <g>
      <rect class="cls-1" x="173.01" y="126.47" width="73.95" height="73.95" rx="2.34" ry="2.34"/>
      <rect class="cls-1" x="0" y="126.47" width="73.95" height="73.95" rx="2.34" ry="2.34"/>
      <rect class="cls-1" x="173.01" y="212.63" width="73.95" height="73.95" rx="2.34" ry="2.34"/>
      <rect class="cls-1" x="173.01" y="298.8" width="73.95" height="73.95" rx="2.34" ry="2.34"/>
      <rect class="cls-1" x="86.51" y="298.8" width="73.95" height="73.95" rx="2.34" ry="2.34"/>
      <rect class="cls-1" x="0" y="298.8" width="73.95" height="73.95" rx="2.34" ry="2.34"/>
      <path class="cls-1" d="M156.16,126.47h-65.37c-2.37,0-4.29,1.92-4.29,4.29v65.37c0,2.37,1.92,4.29,4.29,4.29h19.04c3.98,0,7.21,3.23,7.21,7.21v30.82c0,3.98-3.23,7.21-7.21,7.21h-28.67c-3.98,0-7.21-3.23-7.21-7.21v-21.52c0-2.37-1.92-4.29-4.29-4.29H4.29c-2.37,0-4.29,1.92-4.29,4.29v65.37c0,2.37,1.92,4.29,4.29,4.29h151.87c2.37,0,4.29-1.92,4.29-4.29v-65.37c0-.46-.09-.9-.23-1.32h.23v-84.84c0-2.37-1.92-4.29-4.29-4.29h0Z"/>
    </g>
    <g>
      <path class="cls-1" d="M541.26,215.96h-60.23c-2.69-25.91-18.85-41.05-44.08-41.05-31.63,0-51.14,28.27-51.14,74.7s19.52,74.7,50.47,74.7c25.23,0,41.72-15.47,45.09-42.39h60.9c-4.71,59.55-45.09,92.87-105.99,92.87-68.97,0-111.38-47.44-111.38-125.17s42.74-125.17,112.05-125.17c61.91,0,101.95,35.67,104.31,91.52h0Z"/>
      <path class="cls-1" d="M622.69,318.58l-15.47,50.81h-61.24l81.77-239.57h76.38l81.77,239.57h-61.24l-15.14-50.81h-86.82ZM690.32,254.65c-8.75-28.6-17.16-58.21-24.23-87.15h-.67c-7.07,28.94-15.14,58.55-23.56,87.15l-4.71,16.15h58.21l-5.05-16.15h0Z"/>
      <path class="cls-1" d="M805.06,369.39v-239.57h58.21v239.57h-58.21Z"/>
      <path class="cls-1" d="M1088.72,202.84h-60.57c0-21.2-12.45-33.31-35.67-33.31-19.18,0-31.63,9.09-31.63,22.54,0,15.81,12.78,20.87,47.78,29.61,46.1,11.44,86.47,23.89,86.47,76.38,0,46.77-38.36,76.71-97.91,76.71s-100.27-29.94-100.27-83.44h61.91c0,24.56,13.12,37.01,39.7,37.01,21.87,0,35.33-9.76,35.33-25.23,0-18.17-13.8-21.87-45.76-30.28-45.76-11.78-87.15-23.56-87.15-75.37,0-43.74,36.34-73.02,93.88-73.02s93.88,26.92,93.88,78.4h0Z"/>
    </g>
    <g>
      <path class="cls-1" d="M1292.97,170.36c0,27.34-16.77,39.97-40.2,52.14-27.79,14.47-32.62,20.21-33.31,28.95h77.41v31.47h-123.58c-.23-2.07-.23-4.6-.23-7.12,0-31.47,9.18-50.54,44.56-70.06,21.82-12.17,34.92-19.98,34.92-34.92,0-9.65-6.43-15.85-17.45-15.85-13.55,0-20.68,7.81-20.68,22.97h-39.28c.46-34.69,22.74-53.53,59.95-53.53s57.88,18.61,57.88,45.94h0Z"/>
      <path class="cls-1" d="M1443.19,205.51c0,51.91-23.2,81.09-64.78,81.09s-64.78-29.18-64.78-81.09,23.2-81.09,64.78-81.09,64.78,29.4,64.78,81.09ZM1353.83,205.51c0,32.39,8.5,50.77,24.58,50.77s24.81-18.38,24.81-50.77-8.73-50.3-24.81-50.3-24.58,18.15-24.58,50.3Z"/>
      <path class="cls-1" d="M1579.18,170.36c0,27.34-16.77,39.97-40.2,52.14-27.79,14.47-32.62,20.21-33.31,28.95h77.41v31.47h-123.58c-.23-2.07-.23-4.6-.23-7.12,0-31.47,9.18-50.54,44.56-70.06,21.82-12.17,34.92-19.98,34.92-34.92,0-9.65-6.43-15.85-17.45-15.85-13.55,0-20.68,7.81-20.68,22.97h-39.28c.46-34.69,22.74-53.53,59.95-53.53s57.88,18.61,57.88,45.94h0Z"/>
      <path class="cls-1" d="M1725.03,171.52h-39.51c-1.38-11.25-7.58-17.45-17.92-17.45-14.7,0-25.96,12.41-26.88,42.73h.46c8.96-9.88,20.68-14.93,35.15-14.93,30.09,0,50.54,20.44,50.54,50.07,0,32.39-24.58,54.67-60.41,54.67-39.97,0-63.17-25.96-63.17-77.18,0-53.98,24.81-84.99,66.38-84.99,32.39,0,53.29,17.45,55.36,47.09h0ZM1646.01,233.76c0,13.55,8.04,22.74,20.44,22.74s20.91-9.41,20.91-23.2-8.04-23.66-20.68-23.66-20.68,9.65-20.68,24.12Z"/>
    </g>
  </g>
</svg>