<?xml version="1.0" encoding="UTF-8"?>
<svg xmlns="http://www.w3.org/2000/svg" version="1.1" viewBox="0 0 2500 2500">
  <!-- Generator: Adobe Illustrator 29.8.2, SVG Export Plug-In . SVG Version: 2.1.1 Build 3)  -->
  <defs>
    <style>
      .st0 {
        letter-spacing: 0em;
      }

      .st0, .st1, .st2, .st3 {
        fill: #231f20;
      }

      .st0, .st2, .st4, .st3 {
        font-weight: 800;
      }

      .st0, .st4 {
        font-size: 400px;
      }

      .st0, .st4, .st3 {
        font-family: NeueHaasUnicaW1G-Heavy, 'Neue Haas Unica W1G';
      }

      .st5 {
        font-family: RealHeadPro-Bold, 'Real Head Pro';
        font-size: 135.26px;
        font-weight: 700;
      }

      .st5, .st6, .st4 {
        fill: #414042;
      }

      .st5, .st4, .st7 {
        isolation: isolate;
      }

      .st2 {
        font-family: NeueHaasUnicaW1G-Black, 'Neue Haas Unica W1G';
        font-size: 217.11px;
        letter-spacing: -.02em;
        stroke: #fff;
        stroke-miterlimit: 10;
        stroke-width: 2px;
      }

      .st7, .st8 {
        display: none;
      }

      .st3 {
        font-size: 178px;
        letter-spacing: 0em;
      }
    </style>
  </defs>
  <g id="Layer_1" class="st8">
    <g id="Layer_11" data-name="Layer_1" class="st8">
      <g>
        <rect class="st6" x="758.62" y="1005.43" width="99.18" height="99.18" rx="2.34" ry="2.34"/>
        <rect class="st6" x="526.6" y="1005.43" width="99.18" height="99.18" rx="2.34" ry="2.34"/>
        <rect class="st6" x="758.62" y="1120.99" width="99.18" height="99.18" rx="2.34" ry="2.34"/>
        <rect class="st6" x="758.62" y="1236.56" width="99.18" height="99.18" rx="2.34" ry="2.34"/>
        <rect class="st6" x="642.61" y="1236.56" width="99.18" height="99.18" rx="2.34" ry="2.34"/>
        <rect class="st6" x="526.6" y="1236.56" width="99.18" height="99.18" rx="2.34" ry="2.34"/>
        <path class="st6" d="M736.04,1005.43h-87.67c-3.18,0-5.76,2.58-5.76,5.76v87.67c0,3.18,2.58,5.76,5.76,5.76h25.54c5.34,0,9.67,4.33,9.67,9.67v41.33c0,5.34-4.33,9.67-9.67,9.67h-38.45c-5.34,0-9.67-4.33-9.67-9.67v-28.86c0-3.18-2.58-5.76-5.76-5.76h-87.67c-3.18,0-5.76,2.58-5.76,5.76v87.67c0,3.18,2.58,5.76,5.76,5.76h203.68c3.18,0,5.76-2.58,5.76-5.76v-87.67c0-.62-.12-1.21-.31-1.77h.31v-113.79c0-3.18-2.58-5.76-5.76-5.76h0Z"/>
      </g>
      <g class="st7">
        <text class="st5" transform="translate(503.99 1522.58)"><tspan x="0" y="0">Conference on </tspan></text>
        <text class="st5" transform="translate(503.99 1657.84)"><tspan x="0" y="0">Agentic and AI Systems</tspan></text>
      </g>
      <g class="st7">
        <text class="st4" transform="translate(947.3 1306.08)"><tspan x="0" y="0">CAIS</tspan></text>
      </g>
    </g>
    <g>
      <rect class="st1" x="326.75" y="1005.43" width="99.18" height="99.18" rx="2.34" ry="2.34"/>
      <rect class="st1" x="94.73" y="1005.43" width="99.18" height="99.18" rx="2.34" ry="2.34"/>
      <rect class="st1" x="326.75" y="1120.99" width="99.18" height="99.18" rx="2.34" ry="2.34"/>
      <rect class="st1" x="326.75" y="1236.56" width="99.18" height="99.18" rx="2.34" ry="2.34"/>
      <rect class="st1" x="210.74" y="1236.56" width="99.18" height="99.18" rx="2.34" ry="2.34"/>
      <rect class="st1" x="94.73" y="1236.56" width="99.18" height="99.18" rx="2.34" ry="2.34"/>
      <path class="st1" d="M304.16,1005.43h-87.67c-3.18,0-5.76,2.58-5.76,5.76v87.67c0,3.18,2.58,5.76,5.76,5.76h25.54c5.34,0,9.67,4.33,9.67,9.67v41.33c0,5.34-4.33,9.67-9.67,9.67h-38.45c-5.34,0-9.67-4.33-9.67-9.67v-28.86c0-3.18-2.58-5.76-5.76-5.76h-87.67c-3.18,0-5.76,2.58-5.76,5.76v87.67c0,3.18,2.58,5.76,5.76,5.76h203.68c3.18,0,5.76-2.58,5.76-5.76v-87.67c0-.62-.12-1.21-.31-1.77h.31v-113.79c0-3.18-2.58-5.76-5.76-5.76h0Z"/>
    </g>
    <text class="st3" transform="translate(496.9 1132.16)"><tspan x="0" y="0">Conference on </tspan><tspan x="0" y="159">Agentic &amp; AI Systems</tspan></text>
  </g>
  <g id="Layer_2">
    <g>
      <rect class="st1" x="326.75" y="276.19" width="99.18" height="99.18" rx="2.34" ry="2.34"/>
      <rect class="st1" x="94.73" y="276.19" width="99.18" height="99.18" rx="2.34" ry="2.34"/>
      <rect class="st1" x="326.75" y="391.75" width="99.18" height="99.18" rx="2.34" ry="2.34"/>
      <rect class="st1" x="326.75" y="507.32" width="99.18" height="99.18" rx="2.34" ry="2.34"/>
      <rect class="st1" x="210.74" y="507.32" width="99.18" height="99.18" rx="2.34" ry="2.34"/>
      <rect class="st1" x="94.73" y="507.32" width="99.18" height="99.18" rx="2.34" ry="2.34"/>
      <path class="st1" d="M304.16,276.19h-87.67c-3.18,0-5.76,2.58-5.76,5.76v87.67c0,3.18,2.58,5.76,5.76,5.76h25.54c5.34,0,9.67,4.33,9.67,9.67v41.33c0,5.34-4.33,9.67-9.67,9.67h-38.45c-5.34,0-9.67-4.33-9.67-9.67v-28.86c0-3.18-2.58-5.76-5.76-5.76h-87.67c-3.18,0-5.76,2.58-5.76,5.76v87.67c0,3.18,2.58,5.76,5.76,5.76h203.68c3.18,0,5.76-2.58,5.76-5.76v-87.67c0-.62-.12-1.21-.31-1.77h.31v-113.79c0-3.18-2.58-5.76-5.76-5.76h0Z"/>
    </g>
    <text class="st0" transform="translate(497.07 581.55)"><tspan x="0" y="0">CAI</tspan></text>
    <text class="st2" transform="translate(1434.61 441.34)"><tspan x="0" y="0">2026</tspan></text>
  </g>
</svg>